<?xml version="1.0" encoding="UTF-8"?>
<svg width="90px" height="133px" viewBox="0 0 90 133" version="1.1" xmlns="http://www.w3.org/2000/svg" xmlns:xlink="http://www.w3.org/1999/xlink">
    <title>ic_chalice</title>
    <g id="mozart" stroke="none" stroke-width="1" fill="none" fill-rule="evenodd">
        <g id="mozARt-elemente-zauberflöte" transform="translate(-256.000000, -189.000000)" fill="#39ABD7" fill-rule="nonzero">
            <g id="ic_chalice" transform="translate(256.000000, 189.000000)">
                <path d="M89.18022,7.6995 L89.18022,1.84605 C89.18022,1.33629 88.775205,0.92613 88.25958,0.92613 L1.73958,0.92613 C1.22982,0.92613 0.81966,1.330425 0.81966,1.84605 L0.81966,7.6995 C0.81966,34.161 5.48916,67.167 32.90016,72.4395 C32.12673,73.26567 31.64625,74.379 31.64625,75.6153 C31.64625,77.6778 33.005625,79.42395 34.8747,80.04495 C30.6267,97.17195 32.4837,111.05295 10.8402,121.28295 C10.699575,121.353262 9.93786,121.58178 9.93786,121.58178 C7.14876,121.58178 4.87536,123.85518 4.87536,126.64428 L4.87536,127.52904 C4.87536,130.31814 7.14876,132.59154 9.93786,132.59154 L81.07686,132.59154 C83.86596,132.59154 86.13936,130.31814 86.13936,127.52904 L86.13936,126.64428 C86.13936,123.85518 83.86596,121.58178 81.07686,121.58178 C81.07686,121.58178 79.87569,121.35327 79.735065,121.28295 C58.073565,111.0525 59.953065,97.17195 55.700565,80.04495 C57.569715,79.42971 58.929015,77.68365 58.929015,75.6153 C58.929015,74.34381 58.419255,73.2012 57.58722,72.3516 C84.70422,66.9024 89.18022,33.9666 89.18022,7.6986 L89.18022,7.6995 Z" id="Path"></path>
            </g>
        </g>
    </g>
</svg>