<?xml version="1.0" encoding="UTF-8"?>
<svg width="52px" height="44px" viewBox="0 0 52 44" version="1.1" xmlns="http://www.w3.org/2000/svg" xmlns:xlink="http://www.w3.org/1999/xlink">
    <title>9F7E3B68-6038-44F6-AC98-0EE53FCB6060</title>
    <g id="mozart" stroke="none" stroke-width="1" fill="none" fill-rule="evenodd">
        <g id="mozARt-finde-den-startpunkt_hinweis-open" transform="translate(-182.000000, -253.000000)" fill="#39ABD7" fill-rule="nonzero">
            <g id="Group-5" transform="translate(182.000000, 253.000000)">
                <g id="np_quest_1279710_000000" transform="translate(0.498597, 0.000000)">
                    <path d="M49.1158181,7.05306104 L38.7060039,7.05306104 C37.9157382,7.05306104 37.2772619,6.44067608 37.2772619,5.68270443 C37.2772619,4.92473278 37.9157382,4.31234781 38.7060039,4.31234781 L47.3344626,4.31234781 C46.821007,3.37880608 45.7963361,2.74071322 44.6220816,2.74071322 C43.8318159,2.74071322 43.1933397,2.12832826 43.1933397,1.37035661 C43.1933397,0.612384963 43.8318159,0 44.6220816,0 C47.8880716,0 50.544503,2.54798627 50.544503,5.6825948 C50.544503,6.43842869 49.9060267,7.05295141 49.115761,7.05295141 L49.1158181,7.05306104 Z" id="Path"></path>
                    <path d="M31.4903035,43.1998892 L5.77581131,43.1998892 C2.6618027,43.1998892 0.128987066,40.651903 0.128987066,37.5172944 C0.128987066,36.7593228 0.737752099,36.1469378 1.49124323,36.1469378 L27.2057354,36.1469378 C27.9592266,36.1469378 28.5679916,36.7593228 28.5679916,37.5172944 C28.5679916,39.1381522 29.8791359,40.4592856 31.4925921,40.4592856 C32.2460832,40.4592856 32.8548483,41.0716706 32.8548483,41.8296422 C32.8527199,42.5876139 32.241833,43.1999989 31.490467,43.1999989 L31.4903035,43.1998892 Z M3.18915931,38.8896792 C3.67872148,39.8232209 4.6557098,40.4613138 5.77532089,40.4613138 L26.6603426,40.4613138 C26.3687326,39.9795457 26.1473659,39.4506484 26.0090206,38.8896792 L3.18915931,38.8896792 Z" id="Shape"></path>
                    <path d="M31.3581066,43.1999989 L6.85368729,43.1999989 C6.07078692,43.1999989 5.43826139,42.5821966 5.43826139,41.8177935 C5.43826139,41.0533903 6.07078692,40.4358092 6.85368729,40.4358092 L31.3581066,40.4358092 C34.3105718,40.4358092 36.7101717,38.0907478 36.7101717,35.210195 L36.7101717,6.94419452 C36.7101717,5.37652685 37.2453782,3.92759927 38.1455268,2.76369213 L12.5483986,2.76369213 C10.1863925,2.76369213 8.26673528,4.64015036 8.26673528,6.94419452 L8.26673528,37.4711213 L5.43588348,37.4711213 L5.43809494,6.94419452 C5.43809494,3.11565588 8.62942741,0 12.550327,0 L43.8221807,0 C44.605081,0 45.2376066,0.617581127 45.2376066,1.38198426 C45.2376066,2.1463874 44.605081,2.76396853 43.8221807,2.76396853 C41.4601745,2.76396853 39.5405173,4.64042676 39.5405173,6.94447092 L39.5405173,35.2104714 C39.5405173,39.6177298 35.8692422,43.1999989 31.3576571,43.1999989 L31.3581066,43.1999989 Z" id="Path"></path>
                </g>
                <path d="M22.5069997,25.5235948 L22.6582602,22.1865163 C22.6784283,21.6202241 22.7994367,21.1955051 23.0212854,20.912359 C23.2431341,20.6292129 23.7775879,20.1792129 24.6246467,19.562359 C25.4717055,18.9455051 26.1624618,18.2578647 26.6969156,17.4994377 C27.2313693,16.7410108 27.4985962,15.6994378 27.4985962,14.3747187 C27.4985962,13.0499997 27.0649828,11.9730334 26.1977559,11.1438199 C25.330529,10.3146065 24.0145627,9.89999974 22.2498569,9.89999974 C20.485151,9.89999974 18.6347309,10.3651683 16.6985965,11.2955053 L16.6985965,11.2955053 L16.6985965,15.451685 L19.7843107,15.6640445 L19.7843107,14.0561794 C19.7843107,13.7325839 19.8196048,13.4898873 19.8901931,13.3280895 C19.9607813,13.1662918 20.1977561,13.0297749 20.6011174,12.918539 C21.0044787,12.807303 21.4380922,12.7516851 21.9019577,12.7516851 C23.2935543,12.7516851 23.9893526,13.3887637 23.9893526,14.662921 C23.9893526,15.1685389 23.9187644,15.5730333 23.7775879,15.8764041 C23.6767476,16.0382018 23.5759072,16.2050558 23.4750669,16.3769659 C23.3742266,16.548876 22.9910333,16.8775276 22.3254871,17.3629209 C21.095235,18.2528085 20.2985964,19.0213478 19.9355712,19.6685388 C19.6128821,20.2550556 19.4515376,20.9932579 19.4515376,21.8831455 L19.4515376,21.8831455 L19.4515376,22.3382017 L19.6027981,25.5235948 L22.5069997,25.5235948 Z M21.0548989,31.4999992 C21.700277,31.4999992 22.2095207,31.297752 22.58263,30.8932576 C22.9557392,30.4887632 23.1422938,30.00337 23.1422938,29.4370779 C23.1422938,28.8707858 22.9506972,28.400561 22.5675039,28.0264038 C22.1843106,27.6522465 21.685151,27.4651678 21.070025,27.4651678 C20.4548989,27.4651678 19.9557393,27.6623588 19.572546,28.0567408 C19.1893527,28.4511228 18.9977561,28.9314599 18.9977561,29.497752 C18.9977561,30.0640441 19.1843107,30.539325 19.55742,30.9235947 C19.9305292,31.3078643 20.4296888,31.4999992 21.0548989,31.4999992 Z" id="?"></path>
            </g>
        </g>
    </g>
</svg>